<svg width="17" height="17" viewBox="0 0 17 17" fill="none" xmlns="http://www.w3.org/2000/svg">
<path fill-rule="evenodd" clip-rule="evenodd" d="M7.74972 0.666992C6.62022 0.667088 5.50711 0.937296 4.50327 1.45507C3.49943 1.97285 2.63397 2.72317 1.97909 3.64345C1.32421 4.56373 0.898898 5.62728 0.738647 6.74536C0.578395 7.86344 0.687847 9.00363 1.05787 10.0708C1.4279 11.138 2.04776 12.1012 2.86575 12.8801C3.68375 13.659 4.67614 14.231 5.76015 14.5483C6.84416 14.8657 7.98834 14.9192 9.09724 14.7044C10.2061 14.4896 11.2476 14.0128 12.1347 13.3137L15.1781 16.357C15.3352 16.5088 15.5457 16.5928 15.7642 16.5909C15.9827 16.589 16.1917 16.5013 16.3462 16.3468C16.5007 16.1923 16.5884 15.9833 16.5903 15.7648C16.5922 15.5463 16.5082 15.3358 16.3564 15.1787L13.3131 12.1353C14.1364 11.0908 14.649 9.83566 14.7923 8.51343C14.9356 7.1912 14.7037 5.85534 14.1232 4.65874C13.5428 3.46213 12.6371 2.45312 11.51 1.74718C10.3828 1.04125 9.07969 0.666903 7.74972 0.666992ZM2.33306 7.75033C2.33306 6.31374 2.90374 4.93599 3.91956 3.92016C4.93538 2.90434 6.31313 2.33366 7.74972 2.33366C9.18631 2.33366 10.5641 2.90434 11.5799 3.92016C12.5957 4.93599 13.1664 6.31374 13.1664 7.75033C13.1664 9.18692 12.5957 10.5647 11.5799 11.5805C10.5641 12.5963 9.18631 13.167 7.74972 13.167C6.31313 13.167 4.93538 12.5963 3.91956 11.5805C2.90374 10.5647 2.33306 9.18692 2.33306 7.75033Z" fill="#212121" fill-opacity="0.6"/>
</svg>
